# xmcd
#
# Track frame offsets:
#	150
#	47738
#	67016
#	88198
#	108150
#	131736
#	156819
#
# Disc length: 2705 seconds
#
# Revision: 0
# Processed by: cddbd v1.5.1PL0 Copyright (c) Steve Scherf et al.
# Submitted via: EasyCDDAExtractor 7.1.2.1
#
DISCID=5c0a8f07
DTITLE=Deep Purple - Praha, Ceska Republika - CD 1
DYEAR=2000
DGENRE=Hard Rock
TTITLE0=Pictures Within
TTITLE1=Sitting In A Dream
TTITLE2=Love Is All
TTITLE3=Feverdreams
TTITLE4=Rainbow In The Dark
TTITLE5=Wring That Neck
TTITLE6=Fools
EXTD=
EXTT0=
EXTT1=
EXTT2=
EXTT3=
EXTT4=
EXTT5=
EXTT6=
PLAYORDER=
